# xmcd
#
# Track frame offsets:
#	150
#	16486
#	27148
#	43174
#	64177
#	82136
#	94494
#	111704
#	130217
#	144177
#	166483
#
# Disc length: 2464 seconds
#
# Revision: 0
# Processed by: cddbd v1.4PL0 Copyright (c) Steve Scherf et al.
# Submitted via: EasyCDDAExtractor 4.6.9.1
#
DISCID=9e099e0b
DTITLE=Leann Rimes - You Light Up My Life
DYEAR=1900
DGENRE=Country
TTITLE0=You Light Up My Life
TTITLE1=The Rose
TTITLE2=Bridge Over Troubled Waters
TTITLE3=I Believe
TTITLE4=Ten Thousand Angels Cried
TTITLE5=Clinging To A Saving Hand
TTITLE6=On The Side Of Angels
TTITLE7=I Know Who Holds Tommorow
TTITLE8=God Bless America
TTITLE9=How Do I Live (extended mix)
TTITLE10=Amazing Grace
EXTD=
EXTT0=
EXTT1=
EXTT2=
EXTT3=
EXTT4=
EXTT5=
EXTT6=
EXTT7=
EXTT8=
EXTT9=
EXTT10=
PLAYORDER=
